<?xml version="1.0" standalone="no"?>
<!DOCTYPE svg PUBLIC "-//W3C//DTD SVG 20010904//EN"
 "http://www.w3.org/TR/2001/REC-SVG-20010904/DTD/svg10.dtd">
<svg version="1.0" xmlns="http://www.w3.org/2000/svg"
 width="128.000000pt" height="128.000000pt" viewBox="0 0 128.000000 128.000000"
 preserveAspectRatio="xMidYMid meet">

<g transform="translate(0.000000,128.000000) scale(0.100000,-0.100000)"
fill="#000000" stroke="none">
<path d="M513 909 c-123 -71 -123 -71 -123 -108 0 -31 5 -40 25 -49 14 -6 25
-15 25 -20 0 -5 -11 -14 -25 -20 -20 -9 -25 -19 -25 -49 l0 -38 126 -70 c69
-38 130 -69 136 -67 5 1 61 32 124 69 113 65 114 66 114 103 0 30 -5 39 -25
48 -14 6 -25 15 -25 20 0 5 11 14 25 20 20 9 25 19 25 49 l0 38 -122 70 c-68
39 -125 71 -128 72 -3 2 -60 -29 -127 -68z m284 -121 c-30 -24 -34 -23 -101
17 l-58 36 -64 -36 c-59 -33 -66 -35 -91 -22 l-26 14 24 15 c13 9 55 33 93 55
l69 40 88 -51 c88 -51 88 -51 66 -68z m-120 -70 c-26 -20 -41 -22 -68 -8 -26
14 -24 27 8 43 23 12 30 12 54 -2 l29 -16 -23 -17z m-94 -63 l58 -35 67 37
c64 35 69 36 91 21 22 -16 22 -16 -64 -67 -48 -28 -92 -51 -98 -51 -7 0 -50
22 -96 49 -83 48 -83 48 -60 65 32 22 36 21 102 -19z"/>
<path d="M531 333 c1 -27 4 -38 6 -26 2 12 12 24 21 26 15 4 15 5 0 6 -10 0
-18 7 -18 15 0 8 8 17 18 19 13 4 11 5 -5 6 -21 1 -23 -3 -22 -46z"/>
<path d="M623 364 c-4 -11 2 -23 18 -35 l24 -18 -25 -10 -25 -11 25 3 c32 3
39 33 10 42 -22 7 -22 32 -1 27 7 -1 10 2 6 8 -9 15 -25 12 -32 -6z"/>
<path d="M701 335 l1 -50 9 39 c6 26 6 43 -1 50 -7 7 -10 -6 -9 -39z"/>
<path d="M736 355 c-20 -30 -21 -41 -2 -26 12 10 15 7 19 -16 3 -18 5 -11 6
20 0 26 -1 47 -3 47 -2 0 -11 -11 -20 -25z"/>
</g>
</svg>
